<svg xmlns="http://www.w3.org/2000/svg" width="30" height="15" viewBox="67 0 26 15" fill="none">
  <path d="M72.351 0.751121C72.1438 0.751121 71.9755 0.582753 71.9755 0.37556C71.9755 0.168383 72.1438 0 72.351 0H74.7747C74.9416 0 75.083 0.10844 75.1317 0.259231L76.2525 3.18376H87.6245C87.8317 3.18376 88 3.35213 88 3.55932C88 3.60453 87.9922 3.64813 87.9774 3.68797L85.9946 10.2915C85.946 10.4541 85.7968 10.5596 85.6352 10.5596V10.56H78.4417C78.2974 10.56 78.1662 10.6189 78.071 10.7141C77.9758 10.8093 77.9169 10.9405 77.9169 11.0848V11.095C77.9169 11.2399 77.9758 11.3714 78.0706 11.4661L78.0716 11.4651C78.1668 11.5603 78.298 11.6192 78.4423 11.6192H84.9634C85.1711 11.6192 85.339 11.7876 85.339 11.9948C85.339 12.2019 85.1706 12.3703 84.9634 12.3703H78.4423C78.0908 12.3703 77.7716 12.227 77.5404 11.9963L77.5414 11.9952L77.5404 11.9942C77.3097 11.7635 77.1663 11.4448 77.1663 11.0944V11.0841C77.1663 10.7326 77.3097 10.4135 77.5404 10.1828C77.7711 9.95208 78.0902 9.8087 78.4423 9.8087H85.357L87.121 3.93451H76.5415L78.3506 8.6559C78.4242 8.84938 78.3271 9.06638 78.1331 9.13999C77.9397 9.21361 77.7227 9.11647 77.649 8.92254L75.6519 3.71022C75.647 3.69892 75.6425 3.68762 75.6387 3.67586L74.5178 0.751035H72.3524L72.351 0.751121ZM83.9571 13.2154C84.4167 13.2154 84.7897 13.588 84.7897 14.0476C84.7897 14.5076 84.4171 14.8802 83.9571 14.8802C83.4975 14.8802 83.1249 14.5076 83.1249 14.0476C83.1249 13.588 83.4975 13.2154 83.9571 13.2154ZM78.9087 13.2154C79.3683 13.2154 79.7409 13.588 79.7409 14.0476C79.7409 14.5076 79.3683 14.8802 78.9087 14.8802C78.4487 14.8802 78.0761 14.5076 78.0761 14.0476C78.0761 13.588 78.4487 13.2154 78.9087 13.2154Z" fill="white"/>
</svg>