<svg xmlns="http://www.w3.org/2000/svg" width="30" height="15" viewBox="29 0 26 15" fill="none">
  <path fill-rule="evenodd" clip-rule="evenodd" d="M42.5002 3.26688C42.9151 2.54969 43.3544 1.98246 43.8795 1.56435C44.589 0.999628 45.4296 0.717285 46.5397 0.717285C47.7709 0.717285 48.886 1.21493 49.693 2.01851C50.5008 2.82194 51 3.93296 51 5.15792C51 8.06687 49.1057 9.50311 46.5901 11.4098C45.4195 12.2971 44.1084 13.2908 42.798 14.5954C42.6339 14.7579 42.3672 14.7579 42.2031 14.5954C40.8928 13.2909 39.5816 12.2963 38.4117 11.409C35.8945 9.50279 34 8.0659 34 5.15781C34 3.93289 34.4999 2.82184 35.307 2.0184C36.114 1.21497 37.2291 0.717321 38.4603 0.717321C39.5704 0.717321 40.411 0.999674 41.1205 1.56438C41.6456 1.98336 42.0849 2.55045 42.4998 3.26691L42.5002 3.26688ZM44.403 2.21614C43.8256 2.67522 43.3544 3.3858 42.8755 4.33919C42.8359 4.41718 42.7728 4.48324 42.6878 4.52518C42.4817 4.62827 42.2292 4.54439 42.1257 4.33919C41.6468 3.38483 41.1747 2.67522 40.5991 2.21614C40.0454 1.77545 39.3695 1.55508 38.4607 1.55508C37.4618 1.55508 36.5562 1.9589 35.9023 2.6107C35.2476 3.26264 34.842 4.16328 34.842 5.15778C34.842 7.65379 36.5941 8.98159 38.9212 10.7447C40.0279 11.5841 41.259 12.5176 42.5004 13.7115C43.7417 12.5176 44.973 11.5843 46.0805 10.7455C48.4065 8.9818 50.1586 7.65293 50.1586 5.15788C50.1586 4.16342 49.7538 3.26264 49.0983 2.61081C48.4444 1.95901 47.5388 1.55519 46.5399 1.55519C45.6299 1.55519 44.9549 1.77555 44.4029 2.21625L44.403 2.21614Z" fill="white"/>
</svg>